# xmcd
#
# Track frame offsets:
#	150
#	29324
#	52373
#	74415
#	99230
#	122336
#	146764
#	173082
#	200800
#	225715
#	252145
#
# Disc length: 3646 seconds
#
# Revision: 0
# Processed by: cddbd v1.5.1PL0 Copyright (c) Steve Scherf et al.
# Submitted via: audiograbber 1.83.01
#
DISCID=9d0e3c0b
DTITLE=Feng Shui - CD 1
DYEAR=2003
DGENRE=Ambient
TTITLE0=Winter
TTITLE1=Ice
TTITLE2=A Dark Night
TTITLE3=The Moon
TTITLE4=Shadow
TTITLE5=Water
TTITLE6=The Valley
TTITLE7=Calmness
TTITLE8=Body
TTITLE9=Feminity
TTITLE10=The Spirits
EXTD=
EXTT0=
EXTT1=
EXTT2=
EXTT3=
EXTT4=
EXTT5=
EXTT6=
EXTT7=
EXTT8=
EXTT9=
EXTT10=
PLAYORDER=
